<?xml version="1.0" encoding="UTF-8"?>
<svg width="1024px" height="1024px" viewBox="0 0 1024 1024" version="1.1" xmlns="http://www.w3.org/2000/svg" xmlns:xlink="http://www.w3.org/1999/xlink">
    <title>Artboard</title>
    <g id="Artboard" stroke="none" stroke-width="1" fill="none" fill-rule="evenodd">
        <g id="Group" transform="translate(26.000000, 90.000000)" fill="#000000" fill-rule="nonzero">
            <polygon id="Path" points="14.4276194 419.620461 24.664864 426.3331 281.789441 24.7293604 693.135721 24.7293604 942.489539 419.996369 718.728832 818.27064 270.809598 818.27064 24.8239921 413.149478 14.4276194 419.620461 24.664864 426.3331 14.4276194 419.620461 4.03124659 426.091445 257.151098 843 732.917759 843 971 419.244553 706.502486 0 268.50224 0 0 419.459358 4.03124659 426.091445"></polygon>
            <polygon id="Path" points="671.145401 725.650828 843 419.695244 648.311016 111 325.685831 111 128 419.910119 313.778004 726 334.570289 713.053763 156.88112 420.259292 338.972737 135.73752 634.918027 135.73752 814.490171 420.447308 649.928783 713.429794"></polygon>
            <polygon id="Path" points="274.401252 836.624413 485.708779 446.792086 715.02306 837 736 824.364185 484.860155 397 253 824.739772"></polygon>
            <polyline id="Path" points="264 17.4782037 321.290279 129 343 117.54874 285.709721 6"></polyline>
            <polyline id="Path" points="652.62234 129 711 17.6245898 689.351064 6 631 117.402319"></polyline>
            <polyline id="Path" points="829 433 957 433 957 408 829 408"></polyline>
            <polyline id="Path" points="14 432 142 432 142 407 14 407"></polyline>
        </g>
    </g>
</svg>